<?xml version="1.0" standalone="no"?>
<!DOCTYPE svg PUBLIC "-//W3C//DTD SVG 20010904//EN"
 "http://www.w3.org/TR/2001/REC-SVG-20010904/DTD/svg10.dtd">
<svg version="1.0" xmlns="http://www.w3.org/2000/svg"
 width="465.000000pt" height="426.000000pt" viewBox="0 0 465.000000 426.000000"
 preserveAspectRatio="xMidYMid meet">

<g transform="translate(0.000000,426.000000) rotate(-2) scale(0.100000,-0.100000)"
fill="#51483d" stroke="#51483d" stroke-width="50px">
<path d="M2215 4174 c-334 -28 -638 -121 -900 -276 -545 -323 -898 -844 -989
-1460 -21 -137 -21 -412 -1 -560 69 -505 337 -977 738 -1301 361 -293 806
-449 1282 -450 189 0 340 20 542 73 499 130 948 475 1224 940 368 623 360
1440 -19 2060 -320 523 -847 870 -1453 955 -111 15 -341 26 -424 19z m454 -45
l73 -12 -6 -791 c-3 -435 -9 -981 -12 -1213 l-6 -423 -171 0 c-94 0 -168 -2
-166 -4 2 -2 45 -6 94 -9 50 -4 91 -7 93 -7 1 0 1 -87 0 -192 l-3 -193 -92 -3
-93 -3 0 -34 c0 -21 5 -35 13 -35 32 -2 172 -12 173 -14 1 0 -1 -129 -4 -285
l-5 -284 -373 6 c-236 4 -374 3 -374 -3 0 -6 18 -11 40 -11 22 -1 45 -3 50 -4
6 -1 53 -3 106 -4 l96 -1 -4 -214 c-1 -118 -6 -218 -11 -222 -21 -21 -306 45
-472 110 -636 249 -1093 783 -1239 1446 -123 562 9 1168 352 1619 193 253 481
485 764 615 208 96 354 138 613 176 81 12 472 4 564 -11z m417 -114 c395 -152
726 -426 970 -801 206 -318 314 -717 301 -1114 -17 -531 -207 -976 -576 -1350
-125 -127 -214 -198 -362 -291 -132 -83 -176 -106 -316 -163 -170 -69 -393
-126 -493 -126 l-43 0 6 183 c4 100 7 197 7 215 l0 32 75 0 75 0 0 308 c0 170
3 411 7 535 l6 227 39 0 38 0 0 928 c1 510 3 1053 6 1207 3 154 5 283 4 287 0
11 128 -28 256 -77z"/>
<path d="M1260 3463 c0 -6 78 -13 187 -17 103 -4 188 -8 189 -9 0 -1 -3 -128
-6 -282 -4 -154 -4 -283 -1 -287 3 -3 144 -10 314 -14 l307 -7 2 -196 2 -196
6 160 c4 88 8 309 9 492 l1 331 -112 6 c-62 3 -234 8 -383 11 -148 3 -325 8
-392 11 -77 4 -123 3 -123 -3z"/>
</g>
</svg>
